<svg enable-background="new 0 0 64 64" height="512" viewBox="0 0 64 64" width="512" xmlns="http://www.w3.org/2000/svg"><path d="m62.707 48.793-11.543-11.543.836-.836.293.293c.195.195.451.293.707.293s.512-.098.707-.293l3-3c.391-.391.391-1.023 0-1.414l-5.707-5.707v-18.586c0-3.86-3.141-7-7-7h-38c-2.757 0-5 2.243-5 5v8c0 .552.447 1 1 1h7v43c0 2.757 2.243 5 5 5h36c2.757 0 5-2.243 5-5v-2c0-.552-.447-1-1-1h-3v-10.086l7.793 7.793c.195.195.451.293.707.293s.512-.098.707-.293l2.5-2.5c.391-.391.391-1.023 0-1.414zm-17.707-8.207-3.586-3.586 5.586-5.586 3.586 3.586zm-.414 2.414-1.586 1.586-5.586-5.586 1.586-1.586zm8.414-8.414-5.586-5.586 1.586-1.586 5.586 5.586zm-44-21.586h-6v-7c0-1.654 1.346-3 3-3s3 1.346 3 3zm44 45c0 1.654-1.346 3-3 3h-32.002c.629-.836 1.002-1.875 1.002-3v-1h34zm-4-3h-31c-.553 0-1 .448-1 1v2c0 1.654-1.346 3-3 3s-3-1.346-3-3v-52c0-1.13-.391-2.162-1.026-3h34.026c2.757 0 5 2.243 5 5v17c-.256 0-.512.098-.707.293l-3 3c-.391.391-.391 1.023 0 1.414l.293.293-5.586 5.586-.293-.293c-.391-.391-1.023-.391-1.414 0l-3 3c-.391.391-.391 1.023 0 1.414l7 7c.195.195.451.293.707.293s.512-.098.707-.293l3-3c.391-.391.391-1.023 0-1.414l-.293-.293.836-.836 1.75 1.75zm10.5-4.414-10.836-10.836 1.086-1.086 10.836 10.836z"/><path d="m14 19h33v2h-33z"/><path d="m14 27h29v2h-29z"/><path d="m14 23h33v2h-33z"/><path d="m14 11h33v2h-33z"/><path d="m14 7h33v2h-33z"/><path d="m14 15h33v2h-33z"/><path d="m14 31h27v2h-27z"/><path d="m22 35c-4.963 0-9 4.038-9 9s4.037 9 9 9 9-4.038 9-9-4.037-9-9-9zm0 16c-3.859 0-7-3.14-7-7s3.141-7 7-7 7 3.14 7 7-3.141 7-7 7z"/><path d="m22 39c-2.757 0-5 2.243-5 5s2.243 5 5 5 5-2.243 5-5-2.243-5-5-5zm0 8c-1.654 0-3-1.346-3-3s1.346-3 3-3 3 1.346 3 3-1.346 3-3 3z"/><path d="m39 49c0-.44-.288-.83-.71-.957-.42-.128-.878.035-1.122.402l-.336.504c-.856 1.284-2.289 2.051-3.832 2.051v2c1.745 0 3.392-.684 4.612-1.875.708 1.125 1.962 1.875 3.388 1.875h4v-2h-4c-1.103 0-2-.897-2-2z"/></svg>
